<?xml version="1.0" standalone="no"?>
<svg viewBox="0 0 200 200" xmlns="http://www.w3.org/2000/svg">
  <path fill="#986e92" d="M23.1,-37.6C31.9,-35,42.4,-32.8,54.8,-26.6C67.3,-20.4,81.6,-10.2,86.5,2.8C91.5,15.9,86.9,31.7,79,45.8C71.2,59.8,59.9,72.1,46.2,78.5C32.4,85,16.2,85.8,4.6,77.7C-6.9,69.7,-13.9,52.8,-27.7,46.4C-41.5,40,-62.3,44,-75.4,38C-88.6,32,-94.1,16,-87.4,3.9C-80.7,-8.2,-61.7,-16.4,-53,-30.1C-44.2,-43.7,-45.7,-62.7,-38.5,-66.2C-31.4,-69.8,-15.7,-58,-4.3,-50.6C7.2,-43.2,14.3,-40.2,23.1,-37.6Z" transform="translate(100 100)" />
</svg>

