<?xml version="1.0" standalone="no"?>
<svg viewBox="0 0 200 200" xmlns="http://www.w3.org/2000/svg">
  <path fill="#986e92" d="M38.7,-55.3C49.3,-61,56.4,-48.8,63,-36.6C69.6,-24.4,75.7,-12.2,68.7,-4.1C61.7,4.1,41.4,8.2,35.5,21.6C29.7,35,38.1,57.9,34.6,65.5C31.1,73.2,15.5,65.7,3.5,59.7C-8.6,53.7,-17.1,49.1,-28.9,46.2C-40.7,43.3,-55.6,42,-53.1,34.6C-50.6,27.2,-30.6,13.6,-27.7,1.7C-24.8,-10.2,-38.8,-20.4,-41.2,-27.5C-43.5,-34.7,-34.1,-38.7,-25.3,-34.1C-16.5,-29.5,-8.2,-16.1,2.9,-21.1C14.1,-26.2,28.2,-49.7,38.7,-55.3Z" transform="translate(100 100)" />
</svg>
